<svg xmlns="http://www.w3.org/2000/svg" width="26.616" height="29.724" viewBox="0 0 26.616 29.724">
  <g id="Group_65" data-name="Group 65" transform="translate(-599.969 411)">
    <path id="Path_45" data-name="Path 45" d="M615.076-411a3.008,3.008,0,0,1,.731.573,1.138,1.138,0,0,1-.94,1.745c-.346.014-.693,0-1.081,0v2.14a12.982,12.982,0,0,1,3.69.913,12.7,12.7,0,0,1,3.19,1.922l1.541-1.549c-.2-.18-.438-.387-.663-.612a1.169,1.169,0,0,1-.066-1.686,1.162,1.162,0,0,1,1.706.046q1.5,1.494,3,3a1.171,1.171,0,0,1,.067,1.706,1.168,1.168,0,0,1-1.706-.062c-.22-.217-.434-.44-.632-.642l-1.52,1.518a12.492,12.492,0,0,1,2.828,9.212,12.357,12.357,0,0,1-3.058,7.158,12.673,12.673,0,0,1-14.516,3.325,12.642,12.642,0,0,1-7.6-13.107,12.68,12.68,0,0,1,11.4-11.151v-2.127c-.351,0-.7.009-1.056,0a1.159,1.159,0,0,1-1.1-1.447,1.3,1.3,0,0,1,.853-.872Zm7.882,17.08a10.356,10.356,0,0,0-10.3-10.347,10.34,10.34,0,0,0-10.365,10.3A10.342,10.342,0,0,0,612.6-383.6,10.358,10.358,0,0,0,622.958-393.92Z" fill="#fff"/>
    <path id="Path_46" data-name="Path 46" d="M745.312-291.28h.35c1.113,0,2.225,0,3.338,0a1.16,1.16,0,0,1,1.181,1.145A1.162,1.162,0,0,1,749-288.96q-2.394.009-4.788,0a1.144,1.144,0,0,1-1.217-1.219q-.007-3.351,0-6.7a1.158,1.158,0,0,1,1.149-1.233,1.178,1.178,0,0,1,1.17,1.25c.005,1.731,0,3.463,0,5.194C745.312-291.554,745.312-291.438,745.312-291.28Z" transform="translate(-131.526 -103.815)" fill="#fff"/>
  </g>
</svg>
