<svg xmlns="http://www.w3.org/2000/svg" width="20.238" height="21.248" viewBox="0 0 20.238 21.248">
  <path id="Path_57" data-name="Path 57" d="M-750.438,321.6a.794.794,0,0,1,.426-.577.249.249,0,0,1,.13,0c.435.082.868.171,1.3.251.253.046.509.076.763.12s.5.1.757.146c.2.038.4.079.6.113.421.071.844.132,1.264.209s.815.164,1.224.244c.183.036.366.065.55.1.416.07.832.135,1.247.211s.826.166,1.239.244c.247.047.5.082.745.124q.291.049.581.1c.484.09.969.179,1.452.273.4.078.792.167,1.189.243s.8.139,1.2.214c.474.089.95.169,1.417.287a1.086,1.086,0,0,1,.439.278c.82.77,1.631,1.551,2.446,2.326.318.3.656.587.956.906a2.031,2.031,0,0,1,.308.547.239.239,0,0,1-.04.2c-.268.373-.532.749-.821,1.106-.831,1.028-1.674,2.046-2.511,3.069-.91,1.112-1.815,2.227-2.728,3.336-.791.961-1.591,1.914-2.385,2.872q-1.092,1.317-2.181,2.637c-.283.341-.571.678-.855,1.018-.084.1-.173.1-.239-.005a3.938,3.938,0,0,1-.307-.552c-.152-.362-.275-.736-.419-1.1-.167-.427-.343-.851-.516-1.276s-.347-.837-.519-1.256-.333-.819-.5-1.228-.33-.8-.5-1.194q-.259-.62-.52-1.239c-.174-.412-.352-.822-.524-1.235-.2-.473-.388-.949-.584-1.423-.169-.408-.342-.815-.512-1.222s-.334-.795-.5-1.192q-.262-.627-.521-1.255c-.2-.484-.4-.97-.595-1.455s-.413-.987-.614-1.482c-.166-.409-.324-.823-.487-1.233-.145-.365-.3-.727-.436-1.094-.109-.285-.207-.575-.311-.863C-750.365,321.792-750.4,321.7-750.438,321.6Zm2.191,1.779-.046.034,6.3,15.38.051-.008a.9.9,0,0,0,.039-.135c.036-.277.066-.555.1-.832.049-.381.106-.76.15-1.141s.076-.775.116-1.162c.029-.278.06-.556.094-.834.053-.424.113-.848.164-1.272.046-.381.082-.763.125-1.144q.078-.694.161-1.388c.042-.354.082-.708.136-1.06a.283.283,0,0,0-.1-.289q-1.488-1.259-2.976-2.52c-.733-.62-1.47-1.235-2.2-1.856-.665-.564-1.326-1.133-1.99-1.7A.792.792,0,0,0-748.247,323.384Zm15.817,5.5c-.119.025-.218.052-.319.067-.288.042-.576.077-.864.119-.216.032-.432.071-.647.109-.259.046-.517.1-.776.14-.287.045-.576.076-.863.119-.222.033-.443.073-.664.113-.248.045-.494.1-.743.138-.487.075-.976.142-1.464.214-.2.03-.4.059-.6.1-.27.055-.3.1-.327.369-.015.17-.017.341-.039.509-.08.642-.171,1.283-.248,1.925s-.138,1.276-.208,1.914c-.03.278-.06.556-.1.834-.052.4-.111.8-.162,1.207-.057.446-.112.892-.161,1.339-.025.227-.036.456-.054.689C-740.516,338.751-732.465,329.069-732.431,328.88Zm-14.838-6.1-.016.047c.085.075.169.152.256.223q.687.563,1.376,1.123c.8.651,1.6,1.3,2.4,1.952q1.412,1.157,2.816,2.324a.212.212,0,0,0,.327,0c.328-.292.662-.576,1-.858q1.354-1.137,2.712-2.271c.13-.109.261-.217.386-.332a.223.223,0,0,0,.06-.124c0-.015-.052-.051-.084-.057q-.524-.1-1.05-.19c-.41-.071-.821-.135-1.23-.208-.662-.118-1.324-.241-1.986-.362q-.291-.053-.581-.11c-.424-.083-.847-.17-1.272-.248-.4-.075-.81-.136-1.214-.212s-.8-.168-1.207-.242-.832-.14-1.247-.211c-.194-.034-.387-.072-.58-.111-.236-.047-.472-.1-.709-.142A.689.689,0,0,0-747.269,322.777Zm8.651,5.938.017.057c.088-.009.177-.015.264-.029.059-.01.115-.037.174-.047.416-.071.832-.136,1.247-.209.5-.087.99-.181,1.485-.272.2-.037.4-.07.6-.108.414-.079.826-.165,1.241-.24s.832-.138,1.247-.212a.181.181,0,0,0,.126-.082c.011-.03-.035-.093-.07-.126-.422-.392-.846-.782-1.27-1.172-.287-.264-.577-.525-.857-.8a.19.19,0,0,0-.313,0c-.172.161-.36.3-.542.454q-1.5,1.237-2.992,2.474C-738.385,328.5-738.5,328.612-738.618,328.715Z" transform="translate(750.438 -321.016)" fill="#f44336"/>
</svg>
