<svg xmlns="http://www.w3.org/2000/svg" width="22.271" height="22.247" viewBox="0 0 22.271 22.247">
  <g id="Group_38" data-name="Group 38" transform="translate(-712.702 -365)">
    <path id="Path_17" data-name="Path 17" d="M724.374,365a3.429,3.429,0,0,1,1.339.965q4.288,4.3,8.581,8.593a2.217,2.217,0,0,1,.5.678,2.035,2.035,0,0,1-1.8,2.913c-.116,0-.232,0-.384,0v.261c0,2.133,0,4.266,0,6.4a2.38,2.38,0,0,1-1.86,2.371,2.721,2.721,0,0,1-.6.064c-1.132.006-2.263,0-3.4,0a.673.673,0,0,1-.753-.751q0-2.514,0-5.027a1.106,1.106,0,0,0-1.211-1.219q-.936,0-1.872,0a1.1,1.1,0,0,0-1.2,1.208q0,2.492,0,4.984c0,.566-.241.806-.808.806q-1.654,0-3.308,0a2.4,2.4,0,0,1-2.5-2.492q0-3.156,0-6.311v-.269a6.849,6.849,0,0,1-.718-.065,1.946,1.946,0,0,1-1.56-1.357,1.975,1.975,0,0,1,.407-2.011c.065-.077.139-.148.211-.22q4.255-4.255,8.509-8.512A3.484,3.484,0,0,1,723.33,365Zm2.924,20.94h.268c.805,0,1.612-.03,2.415.008a1.2,1.2,0,0,0,1.328-1.315c-.03-2.328-.011-4.657-.011-6.986,0-.563.243-.8.811-.8.283,0,.566,0,.849,0a.743.743,0,0,0,.553-1.22,2.5,2.5,0,0,0-.195-.2l-8.8-8.8a.79.79,0,0,0-1.32,0l-7.88,7.88c-.364.364-.732.724-1.09,1.095a.7.7,0,0,0-.15.8.707.707,0,0,0,.682.453c.276,0,.551,0,.827,0,.581,0,.82.239.82.817q0,3.559,0,7.117a1.091,1.091,0,0,0,1.156,1.161q1.317,0,2.634,0c.063,0,.126-.007.21-.012v-.268c0-1.422-.006-2.844,0-4.266a2.357,2.357,0,0,1,2.278-2.434c.774-.045,1.552-.011,2.328-.006a1.834,1.834,0,0,1,.388.05,2.379,2.379,0,0,1,1.9,2.384c.007,1.422,0,2.844,0,4.266Z" fill="#c9c6c6"/>
  </g>
</svg>
