<svg xmlns="http://www.w3.org/2000/svg" width="186.423" height="31.73" viewBox="0 0 186.423 31.73">
  <g id="Group_49" data-name="Group 49" transform="translate(-119 -45.005)">
    <path id="Path_22" data-name="Path 22" d="M133.873,512.54h11.312a11.56,11.56,0,0,1,7.663,2.443q2.925,2.443,2.935,7.1a9.287,9.287,0,0,1-2.974,7.31,10.991,10.991,0,0,1-7.624,2.641h-4.248v11.5h-7.063Zm7.063,13.856h1.994a7.165,7.165,0,0,0,3.863-.966,4.029,4.029,0,0,0,0-6.306,7.092,7.092,0,0,0-3.863-.965h-1.994Z" transform="translate(-14.873 -467.221)" fill="#fff"/>
    <path id="Path_23" data-name="Path 23" d="M181.656,512.54v31h-7.068v-31Z" transform="translate(-31.544 -467.221)" fill="#fff"/>
    <path id="Path_24" data-name="Path 24" d="M201.224,512.54v24.8h10.67v6.195H194.161v-31Z" transform="translate(-39.559 -467.221)" fill="#fff"/>
    <path id="Path_25" data-name="Path 25" d="M238.629,512.54v24.8H249.3v6.195H231.566v-31Z" transform="translate(-54.875 -467.221)" fill="#fff"/>
    <path id="Path_26" data-name="Path 26" d="M339.163,512.54v6.2H328.29V524.9h10.024v6.2H328.29v12.443h-7.068v-31Z" transform="translate(-91.586 -467.221)" fill="#fff"/>
    <path id="Path_27" data-name="Path 27" d="M380.866,529.088v10.081q0,5.706-3.085,8.637t-9.009,2.926q-5.94,0-9.024-2.926t-3.076-8.637V529.088h7.068V537.1q0,3.75,1.179,5.229a5.875,5.875,0,0,0,7.726,0c.8-.966,1.188-2.728,1.188-5.229v-8.015Z" transform="translate(-106.102 -473.997)" fill="#fff"/>
    <path id="Path_28" data-name="Path 28" d="M411.712,524.3v19.235h-7.063v-31h7.063l12.307,19.235h.071V512.54h7.079v31h-7.065L411.788,524.3Z" transform="translate(-125.747 -467.221)" fill="#fff"/>
    <path id="Path_29" data-name="Path 29" d="M388.912,519.638a3.663,3.663,0,1,1,2.584-1.075A3.663,3.663,0,0,1,388.912,519.638Zm0-6.928a3.268,3.268,0,1,0,2.311.957A3.271,3.271,0,0,0,388.912,512.71Z" transform="translate(-117.802 -467.131)" fill="#fff"/>
    <path id="Path_30" data-name="Path 30" d="M388.536,518.247a.337.337,0,0,1,.1-.236.333.333,0,0,1,.235-.1.333.333,0,0,1,.334.334.332.332,0,0,1-.334.333.334.334,0,0,1-.235-.1A.338.338,0,0,1,388.536,518.247Zm-1.328-1.449a2.505,2.505,0,1,0,5.011,0,2.443,2.443,0,0,0-.178-.927.928.928,0,0,1-1.452.321.932.932,0,0,1-.183-1.2.931.931,0,0,1,.51-.4,2.5,2.5,0,0,0-3.709,2.2Z" transform="translate(-118.606 -467.936)" fill="#ea0f43"/>
    <path id="Path_31" data-name="Path 31" d="M360.326,519.638a3.665,3.665,0,1,1,2.579-1.076A3.655,3.655,0,0,1,360.326,519.638Zm0-6.928a3.275,3.275,0,1,0,2.306.961A3.273,3.273,0,0,0,360.326,512.71Z" transform="translate(-106.095 -467.131)" fill="#fff"/>
    <path id="Path_32" data-name="Path 32" d="M359.944,518.248a.332.332,0,0,1,.055-.19.338.338,0,0,1,.522-.054.34.34,0,0,1,.072.37.337.337,0,0,1-.316.207.333.333,0,0,1-.333-.333Zm-1.328-1.449a2.511,2.511,0,1,0,5.017,0,2.592,2.592,0,0,0-.178-.927.943.943,0,0,1-.288.359.934.934,0,0,1-1.261-.127.933.933,0,0,1,.031-1.267.95.95,0,0,1,.391-.24,2.506,2.506,0,0,0-3.712,2.2Z" transform="translate(-106.897 -467.937)" fill="#12600c"/>
    <path id="Path_33" data-name="Path 33" d="M268.352,541.387a2.723,2.723,0,0,1-.357-.149,3.975,3.975,0,0,1-.792-.517,4.213,4.213,0,0,1-.353-.314,4.051,4.051,0,0,1-1.235-3.689,2.286,2.286,0,0,1,.038-.314,7.306,7.306,0,0,0-.188-1.975c-.082-.4-.174-.83-.266-1.27s-.193-.922-.289-1.41a20.821,20.821,0,0,1-.4-3.635v-.589a20.486,20.486,0,0,1,.4-3.64,22.71,22.71,0,0,0,.743-4.655,2.434,2.434,0,0,0-.043-.309,4.627,4.627,0,0,1,.2-2.177,4.319,4.319,0,0,1,1.038-1.511,4.442,4.442,0,0,1,3-1.313,4.044,4.044,0,0,0,.531-.044,6.515,6.515,0,0,1,1.058-.048h.285a21.027,21.027,0,0,0-2.825,3.036.809.809,0,0,0-.154.319.314.314,0,0,0-.018.136.328.328,0,0,0,.039.131.325.325,0,0,0,.09.1.331.331,0,0,0,.125.058,1.043,1.043,0,0,0,.995-.435,16.215,16.215,0,0,1,4.451-4.089h.024a9.3,9.3,0,0,1,3.959-1.082,15.176,15.176,0,0,1,4.945.966c1.139.386,2.052.753,2.626.864.386.073.8.106,1.2.164a4.484,4.484,0,0,1,2.786,1.26,4.026,4.026,0,0,1,1.236,3.684,4.41,4.41,0,0,1-.063.608c-.029.246-.111.739-.159,1.2a23.366,23.366,0,0,0-3.862-3.664c-.343-.261-.758-.29-.932-.048a.4.4,0,0,0-.07.154.407.407,0,0,0,0,.169.967.967,0,0,0,.382.56,14.5,14.5,0,0,1,5.615,7.353v.063a10.864,10.864,0,0,1,.193,2.013v.782a20.888,20.888,0,0,1-.4,3.635,23.4,23.4,0,0,0-.743,4.655,2.517,2.517,0,0,0,.038.324,4.084,4.084,0,0,1-1.241,3.678,4.5,4.5,0,0,1-2.786,1.27c-.4.048-.811.082-1.2.159-.575.106-1.487.483-2.627.865a15.3,15.3,0,0,1-4.944.941,22.832,22.832,0,0,1-6.17-1.506,6.289,6.289,0,0,1,2.207-.738.51.51,0,0,0,.583-.33.509.509,0,0,0,.025-.24.84.84,0,0,0-.734-.725c-.966-.111-2.206.483-3.65,1.082a3.725,3.725,0,0,1-2.308.213Z" transform="translate(-68.366 -467.003)" fill="#fff"/>
    <g id="Group_48" data-name="Group 48" transform="translate(202.495 52.508)">
      <g id="Group_45" data-name="Group 45" transform="translate(0 0.003)">
        <path id="Path_34" data-name="Path 34" d="M283.265,542.882l-.689-1.772-1.655-4.255-1.994-5.128L277.2,527.3c-.278-.713-.528-1.446-.836-2.148,0-.01-.008-.02-.011-.03l-.683.683,1.317.239,3.165.574,3.829.7,3.312.6,1.092.2c.172.031.347.074.52.094l.023,0-.244-.143,2.593,2.053.367.291-.087-.673-.925,1.293-2.223,3.106-2.689,3.758-2.326,3.251c-.376.526-.78,1.04-1.133,1.583l-.017.023a.558.558,0,0,0,.2.759.57.57,0,0,0,.759-.2l.925-1.293,2.223-3.106,2.689-3.758,2.326-3.251.767-1.072c.121-.169.255-.334.366-.51,0-.008.011-.015.017-.023a.554.554,0,0,0-.087-.673l-2.872-2.273a.936.936,0,0,0-.369-.219c-.094-.021-.191-.035-.286-.052l-1.293-.234-4.379-.794-4.709-.854c-.84-.152-1.679-.311-2.52-.457l-.036-.007a.577.577,0,0,0-.54.143.545.545,0,0,0-.143.54l.689,1.773,1.655,4.254,1.994,5.128L281.348,541c.279.716.553,1.434.836,2.148l.011.029a.568.568,0,0,0,.683.387A.561.561,0,0,0,283.265,542.882Z" transform="translate(-275.262 -524.719)" fill="red"/>
      </g>
      <g id="Group_46" data-name="Group 46" transform="translate(0.01 0)">
        <path id="Path_35" data-name="Path 35" d="M283.292,543.028l.338-3.7.492-5.379.055-.6a.642.642,0,0,0-.182-.518c-.3-.323-.621-.636-.932-.953l-3.954-4.046-2.843-2.909-.044-.045a.555.555,0,0,0-.785.785l.775.794,1.863,1.907,2.254,2.306,1.949,1.994c.314.321.616.664.947.969l.013.013-.162-.393-.3,3.319-.48,5.252-.11,1.208a.557.557,0,0,0,.555.555.57.57,0,0,0,.555-.555Z" transform="translate(-275.278 -524.714)" fill="red"/>
      </g>
      <g id="Group_47" data-name="Group 47" transform="translate(7.807 2.406)">
        <path id="Path_36" data-name="Path 36" d="M297.308,531.148l-2.85,1.1-4.536,1.743-1.032.4.54.928,1.849-1.89,2.934-3,.675-.69a.555.555,0,0,0-.785-.785l-1.849,1.89-2.934,3-.675.69a.555.555,0,0,0,.54.928l2.85-1.1,4.536-1.743,1.032-.4a.568.568,0,0,0,.387-.683.561.561,0,0,0-.683-.388Z" transform="translate(-288.483 -528.789)" fill="red"/>
      </g>
    </g>
  </g>
</svg>
