<svg xmlns="http://www.w3.org/2000/svg" width="27.413" height="30.12" viewBox="0 0 27.413 30.12">
  <g id="Group_96" data-name="Group 96" transform="translate(-1566 -49)">
    <g id="Group_50" data-name="Group 50" transform="translate(839.346 795.777)">
      <path id="Path_37" data-name="Path 37" d="M735.571-720.733H735.2c-1.981,0-3.961.005-5.942,0a2.482,2.482,0,0,1-2.538-1.983,2.419,2.419,0,0,1,.932-2.534c.368-.294.752-.567,1.127-.852a2,2,0,0,0,.8-1.309c.447-2.7.93-5.4,1.33-8.1a9.558,9.558,0,0,1,4.515-7.116,13.259,13.259,0,0,1,1.911-.895.375.375,0,0,0,.287-.409,2.753,2.753,0,0,1,1.972-2.732,2.73,2.73,0,0,1,3.5,2.586.556.556,0,0,0,.434.6,9.331,9.331,0,0,1,6.209,7.574c.487,2.835.941,5.675,1.411,8.512a1.955,1.955,0,0,0,.758,1.261c.364.282.737.552,1.1.832a2.507,2.507,0,0,1,.926,2.849,2.509,2.509,0,0,1-2.456,1.718c-1.981.008-3.961,0-5.942,0h-.382c-.645,2.555-2.2,4.116-4.881,4.075C737.686-716.7,736.182-718.242,735.571-720.733Zm4.78-1.381v-.01q2.088,0,4.175,0,3.469,0,6.937.008a1.131,1.131,0,0,0,1.168-.774,1.142,1.142,0,0,0-.462-1.325c-.372-.288-.755-.563-1.125-.854a3.273,3.273,0,0,1-1.245-2.068c-.2-1.148-.385-2.3-.575-3.449-.309-1.867-.57-3.744-.936-5.6a8.019,8.019,0,0,0-9.8-6.248,7.631,7.631,0,0,0-6.015,6.115c-.6,2.8-1,5.642-1.422,8.476a4.2,4.2,0,0,1-1.906,3.181,5.821,5.821,0,0,0-.739.565,1.12,1.12,0,0,0-.091,1.609,1.294,1.294,0,0,0,1.048.377Q734.859-722.118,740.351-722.114Zm-3.318,1.4a3.364,3.364,0,0,0,3.427,2.707,3.331,3.331,0,0,0,3.21-2.707ZM741.718-744a1.286,1.286,0,0,0-.716-1.24,1.3,1.3,0,0,0-1.453.105A1.244,1.244,0,0,0,739-744Z" transform="translate(0)" fill="#fff"/>
    </g>
    <circle id="Ellipse_2" data-name="Ellipse 2" cx="3" cy="3" r="3" transform="translate(1584 52)" fill="#f44336"/>
  </g>
</svg>
