<svg xmlns="http://www.w3.org/2000/svg" width="26.14" height="26.17" viewBox="0 0 26.14 26.17">
  <g id="Group_70" data-name="Group 70" transform="translate(-680.77 352.956)">
    <path id="Path_47" data-name="Path 47" d="M693.662-352.956a13.166,13.166,0,0,1,13.05,10.79,13.113,13.113,0,0,1-10.447,15.143,12.74,12.74,0,0,1-7.7-.9.945.945,0,0,0-.614-.058c-1.053.219-2.106.438-3.162.635a2.891,2.891,0,0,1-3.476-3.524c.211-1.054.436-2.106.635-3.163a.988.988,0,0,0-.058-.554,13.071,13.071,0,0,1,5.24-16.5A13.026,13.026,0,0,1,693.662-352.956Zm10.928,13.075c-.091-.707-.126-1.427-.283-2.119a10.313,10.313,0,0,0-7.2-8.03,10.2,10.2,0,0,0-10.47,2.259,10.579,10.579,0,0,0-2.4,12.6,1.6,1.6,0,0,1,.144,1.075c-.253,1.207-.488,2.417-.729,3.627-.13.653.135.909.794.776,1.181-.239,2.365-.464,3.544-.715a1.784,1.784,0,0,1,1.207.162,10.5,10.5,0,0,0,6.284.949A10.783,10.783,0,0,0,704.59-339.881Z" fill="#fff"/>
    <path id="Path_48" data-name="Path 48" d="M760.406-272.062a4.257,4.257,0,0,1-.555-.186,1.162,1.162,0,0,1-.615-1.256,1.147,1.147,0,0,1,1.069-.97,9.817,9.817,0,0,1,1.362,0,1.155,1.155,0,0,1,1.1,1.229c.006,1.456,0,2.913,0,4.369v.309c.124.029.232.049.337.079a1.192,1.192,0,0,1,.858,1.167A1.138,1.138,0,0,1,763-266.2a8.233,8.233,0,0,1-1.553.014,1.128,1.128,0,0,1-1.036-1.2c-.006-1.447,0-2.895,0-4.342C760.405-271.84,760.406-271.95,760.406-272.062Z" transform="translate(-67.754 -67.763)" fill="#fff"/>
    <path id="Path_49" data-name="Path 49" d="M767.958-299.369a1.184,1.184,0,0,1,1.173-1.2,1.185,1.185,0,0,1,1.19,1.182,1.183,1.183,0,0,1-1.174,1.2A1.181,1.181,0,0,1,767.958-299.369Z" transform="translate(-75.304 -45.248)" fill="#fff"/>
  </g>
</svg>
