<svg xmlns="http://www.w3.org/2000/svg" width="22.472" height="13.198" viewBox="0 0 22.472 13.198">
  <g id="Group_85" data-name="Group 85" transform="translate(22.472) rotate(90)" opacity="0.5">
    <path id="Path_50" data-name="Path 50" d="M794.454-357.642a2.47,2.47,0,0,1,.98.7q4.768,4.774,9.543,9.539a1.259,1.259,0,0,1,.395,1.367,1.468,1.468,0,0,1-.349.545q-4.942,4.957-9.9,9.9a1.226,1.226,0,0,1-1.832.01c-.262-.254-.527-.509-.764-.786a1.2,1.2,0,0,1,.009-1.569c.066-.078.138-.151.211-.223q4.026-4.026,8.053-8.051a1.791,1.791,0,0,0,.251-.265.984.984,0,0,1-.229-.129q-4.069-4.061-8.132-8.128a1.209,1.209,0,0,1-.19-1.676,3.714,3.714,0,0,1,1.467-1.239Z" transform="translate(-792.243 357.642)" fill="#fff"/>
  </g>
</svg>
