<svg xmlns="http://www.w3.org/2000/svg" width="21.117" height="25.331" viewBox="0 0 21.117 25.331">
  <g id="Group_40" data-name="Group 40" transform="translate(-875.041 670.155)">
    <path id="Path_20" data-name="Path 20" d="M878.945-450.025c-.3-.062-.6-.107-.885-.191a3.959,3.959,0,0,1-3-3.788,13.518,13.518,0,0,1,.877-5.72,5.261,5.261,0,0,1,2.347-2.833,4.625,4.625,0,0,1,2.3-.553,1.77,1.77,0,0,1,.757.261c.375.2.723.458,1.088.683a5.63,5.63,0,0,0,6.355,0c.294-.182.594-.358.87-.565a2.107,2.107,0,0,1,1.666-.339,4.692,4.692,0,0,1,3.586,2.577,10.586,10.586,0,0,1,1.153,4.108,20.406,20.406,0,0,1,.1,2.221,4.051,4.051,0,0,1-3.741,4.1.959.959,0,0,0-.161.046Zm6.656-1.484v0c2.094,0,4.188.018,6.282-.006a2.636,2.636,0,0,0,2.794-2.867,19.2,19.2,0,0,0-.1-1.974,9.122,9.122,0,0,0-.944-3.38,3.191,3.191,0,0,0-2.735-1.875.648.648,0,0,0-.344.085c-.319.188-.625.4-.94.595a7.035,7.035,0,0,1-7.258.428c-.581-.286-1.112-.673-1.668-1.01a.543.543,0,0,0-.267-.107,3.022,3.022,0,0,0-2.094.867,4.821,4.821,0,0,0-1.054,1.685,12.731,12.731,0,0,0-.731,4.979,2.459,2.459,0,0,0,1.247,2.173,3.409,3.409,0,0,0,1.783.412Z" transform="translate(0 -194.799)" fill="#c9c6c6"/>
    <path id="Path_21" data-name="Path 21" d="M959.988-664.06a6.1,6.1,0,0,1-6.091,6.108,6.1,6.1,0,0,1-6.113-6.085,6.089,6.089,0,0,1,6.1-6.118A6.088,6.088,0,0,1,959.988-664.06Zm-6.1,4.624a4.6,4.6,0,0,0,4.619-4.617,4.6,4.6,0,0,0-4.617-4.617,4.6,4.6,0,0,0-4.618,4.616A4.6,4.6,0,0,0,953.885-659.436Z" transform="translate(-68.442)" fill="#c9c6c6"/>
  </g>
</svg>
