<svg xmlns="http://www.w3.org/2000/svg" width="25.002" height="25" viewBox="0 0 25.002 25">
  <g id="Group_39" data-name="Group 39" transform="translate(-607.736 745)">
    <path id="Path_19" data-name="Path 19" d="M632.738-741.729c-.048.5-.083,1-.145,1.5a14.326,14.326,0,0,1-2.861,7.28A7.516,7.516,0,0,1,625.8-730.2a7.672,7.672,0,0,1-1,.187.816.816,0,0,0-.468.215c-.4.363-.833.7-1.247,1.052-.066.057-.15.145-.15.219-.01,1.033-.007,2.066-.007,3.138.108,0,.2,0,.3,0a10.9,10.9,0,0,1,1.483.067,2.616,2.616,0,0,1,2.13,2.436c.025.461,0,.924,0,1.387.111.026.189.041.265.064a.713.713,0,0,1,.524.756.725.725,0,0,1-.662.669,2.194,2.194,0,0,1-.22,0H613.687a.748.748,0,0,1-.848-.711c-.013-.4.235-.66.78-.782,0-.373-.006-.753,0-1.133a2.678,2.678,0,0,1,2.254-2.718,6.115,6.115,0,0,1,.9-.039c.243-.005.487,0,.758,0,0-.092.013-.169.013-.247,0-.936,0-1.871-.006-2.807a.45.45,0,0,0-.143-.3c-.427-.375-.863-.739-1.3-1.1a.688.688,0,0,0-.335-.161,6.945,6.945,0,0,1-4.478-2.342,13.146,13.146,0,0,1-3.1-6.178,18.257,18.257,0,0,1-.439-3.894.731.731,0,0,1,.794-.788c.952,0,1.9,0,2.856,0h.272c0-.3.016-.573,0-.846a.848.848,0,0,1,.572-.96h16.018a.846.846,0,0,1,.572.958c-.019.272,0,.547,0,.848h.266c.893,0,1.787.017,2.68-.007a.918.918,0,0,1,.98.545Zm-19.6-1.794a28.382,28.382,0,0,0,.455,4.538,19.912,19.912,0,0,0,2.025,6,8.3,8.3,0,0,0,2.429,2.919,3.5,3.5,0,0,0,3.207.589,5.229,5.229,0,0,0,2.475-1.829,15.345,15.345,0,0,0,2.7-5.707,25.86,25.86,0,0,0,.822-4.872c.043-.54.057-1.082.085-1.637Zm1.964,22.039H625.37c0-.466.025-.914-.006-1.358a1.207,1.207,0,0,0-1.333-1.076q-3.795,0-7.59,0a2.748,2.748,0,0,0-.292.013,1.181,1.181,0,0,0-1.039,1.038C615.08-722.415,615.1-721.958,615.1-721.484Zm-.477-10.269a23.652,23.652,0,0,1-2.871-9.962h-2.535a15.149,15.149,0,0,0,.987,4.884,10.474,10.474,0,0,0,2.215,3.582A6.126,6.126,0,0,0,614.627-731.753Zm11.244-.045c.019.01.028.018.033.016.053-.019.107-.036.159-.059a6.807,6.807,0,0,0,2.749-2.31,12.407,12.407,0,0,0,2.159-5.2c.142-.778.216-1.569.322-2.367h-2.579A23.606,23.606,0,0,1,625.872-731.8Zm-4.42,3.79a4.935,4.935,0,0,1-2.424.006v2.6h2.424Z" transform="translate(0 0)" fill="#fff"/>
  </g>
</svg>
